<?xml version="1.0" encoding="utf-8"?>
<!-- Generator: Adobe Illustrator 23.0.1, SVG Export Plug-In . SVG Version: 6.00 Build 0)  -->
<svg version="1.1" id="eng" xmlns="http://www.w3.org/2000/svg" xmlns:xlink="http://www.w3.org/1999/xlink" x="0px" y="0px"
	 viewBox="0 0 246.45 32.35" style="enable-background:new 0 0 246.45 32.35;" xml:space="preserve">
<g>
	<g>
		<path d="M7.89,7.53c-2.31,2.21-3.62,5.19-3.69,8.39C4.06,22.51,9.31,28,15.91,28.14c3.2,0.07,6.23-1.11,8.54-3.32
			c2.31-2.21,3.62-5.19,3.69-8.39c0.14-6.6-5.11-12.08-11.71-12.23C13.23,4.14,10.2,5.31,7.89,7.53z M15.93,27.23
			c-6.1-0.13-10.95-5.2-10.82-11.3c0.06-2.95,1.27-5.71,3.41-7.75c2.13-2.04,4.94-3.13,7.89-3.07c6.1,0.13,10.95,5.2,10.82,11.3
			c-0.06,2.95-1.27,5.71-3.41,7.75C21.69,26.2,18.89,27.3,15.93,27.23z"/>
		<path d="M4.99,4.49C1.87,7.48,0.1,11.5,0,15.82c-0.19,8.92,6.9,16.33,15.82,16.52c8.91,0.19,16.33-6.9,16.52-15.82l0,0
			c0.09-4.32-1.5-8.41-4.49-11.53C24.86,1.87,20.84,0.1,16.52,0C12.2-0.09,8.11,1.5,4.99,4.49z M15.84,31.61
			c-8.51-0.18-15.29-7.26-15.1-15.77c0.09-4.12,1.78-7.96,4.76-10.82c2.98-2.85,6.89-4.37,11.01-4.29
			c4.12,0.09,7.96,1.78,10.82,4.76c2.85,2.98,4.37,6.89,4.28,11.01l0,0C31.42,25.02,24.35,31.79,15.84,31.61z"/>
		<path d="M19.39,25.79c-6,1.08-10.82-1.26-11.7-4.14c-0.57-1.86,0.26-2.27,0.39-3.62c-1.04,0.55-1.23-0.89-0.31-1.01
			c0.97-0.13,1.41,0.89,0.93,2.25c-0.68,1.95,0.51,2.86,0.85,2.75c0.01-0.1,0.14-0.35,0.2-0.46c-0.82-1.04-0.48-2.57,0.92-2.69
			c0.57-0.05,0.51,0.36,0.12,0.42c-1.07,0.15-1.02,1.35-0.57,1.5c0.08,0,0.17-0.02,0.25-0.1c-0.02-0.24,0.15-0.59,0.43-0.52
			c0.62,0.15,0.38,0.94-0.04,1c-0.16,0.48-0.46,1.16-0.4,1.51c0.06,0.35,0.31,0.42,0.51,0.22c0.15-0.15,0.22-0.51,0.32-0.9
			c-0.1-0.44,0.11-0.78,0.49-0.62c0.26,0.11,0.29,0.51,0.03,0.82c-0.03,0.38-0.2,0.81-0.16,1.1c0.04,0.29,0.43,0.27,0.58,0.11
			c0.14-0.16,0.29-1.18,0.35-1.41c-0.22-0.2-0.13-0.8,0.32-0.84c0.54-0.04,0.41,0.69,0.26,0.87c0.15,0.57-0.09,1.22,0.02,1.47
			c0.11,0.26,0.53,0.32,0.72,0.11c0.19-0.21-0.05-0.65,0.06-1.16c-0.18-0.44,0.03-0.8,0.29-0.82c0.6-0.05,0.43,0.49,0.32,0.87
			c0.03,0.39,0.1,0.85,0.23,1.21c0.09,0.23,0.47,0.29,0.6-0.01c0.08-0.19-0.1-0.72-0.15-1.09c-0.26-0.61-0.04-0.77,0.19-0.79
			c0.22-0.02,0.52,0.11,0.48,0.7c0.12,0.4,0.23,0.89,0.37,1.21c0.07,0.25,0.38,0.28,0.48,0.02c0.1-0.26-0.09-0.57-0.28-0.99
			c-0.43-0.42-0.04-0.74,0.21-0.76c0.24-0.02,0.63,0.05,0.55,0.7c0.13,0.4,0.22,0.76,0.31,0.97c0.1,0.24,0.44,0.27,0.58,0.11
			c0.14-0.16-0.13-0.44-0.2-0.78c-0.32-0.32-0.27-0.75,0.1-0.78c0.19-0.01,0.56,0.01,0.52,0.56c0.11,0.24,0.11,0.54,0.27,0.8
			c0.19,0.32,0.49,0.2,0.61-0.09c0.12-0.29-0.63-1.12-0.04-1.17c0.58-0.04,0.68,0.72,0.87,0.9c0.19,0.18,0.33,0.06,0.42-0.04
			c0.15-0.17-0.25-0.62,0.03-0.75c0.57-0.26,0.56,0.39,0.97,0.4c1.77,0.03,3.16-2.88,2.95-3.69c-0.59-0.35-0.38-1.23,0.11-1.24
			c1.22-0.02,1.05,1.7,0.12,3.7C23.64,24.21,20.66,25.56,19.39,25.79z"/>
		<path d="M21.96,12c-0.02-0.01-0.02-0.04-0.02-0.06c0.27-1.05,0.47-1.51,0.57-2.55c0.02-0.25-0.15-0.45-0.32-0.49
			C21.55,8.73,21.25,8.74,21,8.72c-0.03,0-0.09-0.01-0.1-0.05c-0.07-0.15-0.18-0.61-0.19-0.84c0.38-0.8-0.3-1.08-0.93-1.07
			c-0.42-0.02-0.84,0.17-0.89,0.48c-0.06,0.6,0.61,0.83,0.85,0.85c0.04,0.09,0.14,0.51,0.15,0.68c0,0.02-0.02,0.05-0.05,0.05
			c-1.07,0.02-2.46,0.21-3.17,0.26c-0.1,0.02-0.15-0.04-0.17-0.1c-0.13-0.36-0.69-2.07,0.36-2.04c0.62,0.02,1.14-0.49,0.55-0.88
			c-0.15-0.1-0.95-0.2-1.38-0.12C15.68,6,15.51,6.41,15.56,6.76c0.07,0.55-1.3,0.61-1.71,0.44c-0.29-0.12-0.65-0.46-0.77-0.69
			c-0.26-0.47-0.72-0.11-0.64,0.14c0.57,1.72,2.39,1.44,2.86,1.47c0.02,0,0.06,0.03,0.07,0.05c0.12,0.62,0.49,1.27,0.48,1.51
			c-0.23,0.25-0.13,0.79,0.19,0.88c-0.39,0.37-0.56,1.68-0.5,2.76c0.08,1.38,0.64,2.72,1.52,2.58c1.12-0.18,0.68-2.76,0.95-2.99
			c0.14-0.11,0.5-0.08,0.63-0.06c0.03,0,0.05,0.04,0.04,0.05c-0.09,1.01-0.33,2.64-0.39,3.07c-0.06,0.44-0.1,0.67,0.13,1.08
			c0.25,0.45,0.69,1.88,0.17,3.39c-0.02,0.06-0.07,0.08-0.08,0.08c-0.47,0.11-0.73,0.26-0.9,0.37c-0.19,0.13-0.39,0.39-0.25,0.55
			c0.2,0.18,1.47,0.11,1.87-0.48c0.01-0.01,0.04-0.07,0.04-0.08c0.14-0.38,0.31-0.66,0.43-0.9c0.59-1.12,0.67-2.5-0.13-3.12
			c-0.23-0.17-0.46-0.34-0.24-0.78c0.43-0.84,0.47-1.77,0.53-2.55c0.02-0.31,0.54-0.49,0.74-0.2c0.49,1.16,0.1,2.15,0.1,2.57
			c-0.01,0.41,0.15,0.6,0.2,0.85c0.33,1.51,0.16,2.73-0.14,4.29c0,0.03-0.03,0.06-0.06,0.07c-0.35,0.12-0.57,0.19-0.79,0.35
			c-0.22,0.16-0.31,0.36-0.21,0.47c0.3,0.33,1.64-0.03,1.74-0.41c0.25-0.95,2.06-3.17,0.8-4.58c-0.57-0.64-0.57-0.39-0.58-0.71
			c0-0.16,0.36-1.01,0.45-1.67c0.1-0.69-0.35-1.34-0.24-1.73c0-0.01,0.03-0.03,0.04-0.03c0.19,0.04,0.63,0.15,0.91,0.32
			c0.09,0.05,0.24,0.01,0.26-0.33C23.09,12.42,22.15,12.06,21.96,12z M16.82,14.87c-0.52-0.01-0.71-3.24-0.18-3.23
			C17.12,11.65,17.17,14.88,16.82,14.87z M18.54,10.09c0.04,0.16,0.2,0.89,0.24,1.33c0.02,0.16-0.04,0.36-0.14,0.4
			c-0.24,0.09-0.65,0.07-0.87-0.01c-0.24-0.09-0.08-1.06-0.97-1.23c0.12-0.09,0.19-0.18,0.21-0.39c0.02-0.14,0.19-0.29,0.4-0.31
			c0.41-0.05,0.66-0.06,0.8-0.05C18.35,9.83,18.49,9.92,18.54,10.09z M20.96,11.51c-0.2,0.19-0.82,0.23-1.13,0.04
			c-0.26-0.15-0.32-1.31-0.19-1.62c0.13-0.31,1.49-0.32,1.6-0.11C21.34,10.04,21.16,11.33,20.96,11.51z"/>
		<path d="M15.13,13.11c-0.1-1.22-1.24-2.84-2.91-3.12c-1.81-0.3-4.62,0.42-4.93,3.08c-0.32,2.75,1.79,4.79,4.32,4.6
			C14.36,17.47,15.27,14.84,15.13,13.11z M13.5,15.07c0.15-0.01,0.43,0.02,0.51,0.22c0.09,0.22-0.52,0.91-0.81,0.99
			c-0.17,0.05-0.43-0.21-0.38-0.47C12.85,15.66,13.38,15.08,13.5,15.07z M14.44,14.2c-0.14,0.1-0.41,0.11-0.53-0.06
			c-0.08-0.12-0.1-1-0.05-1.13c0.05-0.13,0.35-0.23,0.52-0.14C14.56,12.97,14.67,14.04,14.44,14.2z M13.9,11.91
			c-0.03,0.17-0.31,0.23-0.43,0.22c-0.15-0.02-0.78-0.51-0.82-0.68c-0.05-0.23,0.1-0.37,0.24-0.41
			C13.28,10.94,13.94,11.67,13.9,11.91z M11.77,10.68c0.06,0.12,0.12,0.29,0,0.43c-0.11,0.12-1.07,0.15-1.22,0.14
			c-0.31-0.02-0.45-0.33-0.35-0.49C10.39,10.47,11.67,10.45,11.77,10.68z M12.55,12.46c0,0.26-0.91,0.7-1.09,0.59
			c-0.27-0.16-0.81-0.96-0.7-1.1C11.16,11.46,12.55,12.05,12.55,12.46z M10.08,12.24c0.12-0.02,0.66,0.82,0.56,1.14
			c-0.08,0.27-1.09,0.64-1.19,0.54C9.14,13.61,9.41,12.38,10.08,12.24z M9.87,14.73c0-0.16,0.82-0.72,1.14-0.59
			c0.26,0.1,0.67,1.12,0.45,1.22C10.87,15.64,9.87,15,9.87,14.73z M12.43,14.9c-0.24-0.1-0.86-0.93-0.64-1.15
			c0.21-0.21,1.08-0.65,1.23-0.52C13.55,13.74,12.9,15.11,12.43,14.9z M8.8,12.43c-0.23,0.12-0.45-0.04-0.47-0.33
			c-0.02-0.28,0.65-0.98,0.89-0.91c0.12,0.03,0.3,0.26,0.28,0.46C9.48,11.79,8.93,12.36,8.8,12.43z M8.64,14.37
			c-0.13,0.15-0.42,0.25-0.56,0.14c-0.21-0.17-0.27-0.85-0.14-1.14c0.09-0.2,0.57-0.3,0.66-0.08C8.66,13.44,8.73,14.25,8.64,14.37z
			 M8.53,15.56c-0.02-0.22,0.28-0.46,0.5-0.42c0.18,0.04,0.74,0.63,0.77,0.77c0.05,0.25-0.16,0.46-0.33,0.47
			C9.21,16.4,8.55,15.79,8.53,15.56z M10.63,16.72c-0.18-0.1-0.04-0.47,0.22-0.51c0.19-0.03,0.82-0.1,1.04-0.01
			c0.17,0.07,0.29,0.43,0.19,0.53C11.9,16.94,10.89,16.87,10.63,16.72z"/>
		<polygon points="11.18,2.44 11.1,3.06 10.7,3.53 11.31,3.61 11.79,4.01 11.87,3.39 12.27,2.92 11.65,2.84 		"/>
		<polygon points="22.71,29.16 22.21,28.8 21.59,28.76 21.96,28.25 22,27.63 22.5,28 23.12,28.04 22.75,28.54 		"/>
		<polygon points="9.58,29.14 10.08,28.77 10.71,28.74 10.34,28.23 10.31,27.61 9.8,27.98 9.18,28.02 9.55,28.52 		"/>
		<path d="M6.15,26.47l0.63-0.74c0.29-0.34,0.75-0.31,1.19,0.06c0.44,0.38,0.54,0.83,0.25,1.17L7.59,27.7
			c-0.08,0.09-0.08,0.14,0.02,0.23L7.38,28.1l-0.61-0.52l0.14-0.25c0.1,0.09,0.15,0.08,0.23-0.01l0.64-0.75
			c0.13-0.15,0.11-0.33-0.08-0.5c-0.2-0.17-0.39-0.16-0.51-0.01l-0.64,0.74c-0.08,0.09-0.08,0.14,0.02,0.23l-0.22,0.17l-0.56-0.47
			l0.13-0.25C6.02,26.57,6.07,26.56,6.15,26.47z"/>
		<path d="M4.12,24l1.34-1l0.25,0.33l-0.42,1.42C5.26,24.84,5.18,25,5.18,25s0.12-0.11,0.18-0.16l0.59-0.44
			c0.09-0.07,0.11-0.12,0.03-0.23l0.26-0.12l0.4,0.54l-0.18,0.22c-0.08-0.11-0.14-0.11-0.23-0.04l-0.98,0.74
			c-0.1,0.07-0.11,0.12-0.03,0.23l-0.26,0.12L4.6,25.37l0.38-1.29c0.03-0.1,0.11-0.26,0.11-0.26s-0.12,0.12-0.19,0.17l-0.5,0.38
			c-0.1,0.07-0.11,0.12-0.03,0.23l-0.26,0.12l-0.4-0.54l0.19-0.21C3.97,24.07,4.02,24.07,4.12,24z"/>
		<path d="M4.63,21.43l0.35,0.7l-0.22,0.17c-0.06-0.12-0.11-0.13-0.22-0.08l-1.1,0.54c-0.11,0.05-0.13,0.1-0.07,0.22L3.1,23.07
			l-0.35-0.7l0.22-0.17c0.06,0.12,0.11,0.13,0.22,0.08l1.1-0.54c0.1-0.05,0.13-0.1,0.07-0.22L4.63,21.43z"/>
		<path d="M2.14,19.33l1.81,0.16l0.16,0.54l-1.43,1.11c-0.1,0.08-0.12,0.12-0.08,0.24l-0.28,0.02l-0.22-0.75l0.25-0.14
			c0.04,0.11,0.08,0.12,0.17,0.06l0.69-0.52c0.12-0.08,0.36-0.19,0.36-0.19s-0.27,0.03-0.41,0.02L2.27,19.8
			c-0.12-0.01-0.14,0.04-0.11,0.15l-0.28,0.02l-0.2-0.67l0.25-0.13C1.97,19.3,2,19.32,2.14,19.33z"/>
		<path d="M3.47,16.5l0.15,1.62l-0.27,0.09c-0.01-0.14-0.06-0.16-0.17-0.15l-1.22,0.11c-0.12,0.01-0.16,0.04-0.14,0.18l-0.28-0.04
			l-0.14-1.55l0.5-0.05l0.06,0.21c-0.16,0.04-0.19,0.09-0.17,0.32l0.03,0.36l0.51-0.05l-0.03-0.33c-0.01-0.14-0.04-0.19-0.15-0.18
			l0.03-0.23l0.5-0.05L2.75,17c-0.11,0.01-0.13,0.06-0.12,0.2l0.03,0.33l0.55-0.05l-0.05-0.5c-0.02-0.22-0.09-0.25-0.24-0.27
			l0.02-0.23L3.47,16.5z"/>
		<path d="M3.7,13.66l-0.07,0.62c-0.33,0.27-0.84-0.01-0.89,0.42l-0.03,0.25l0.4,0.04c0.12,0.01,0.16-0.01,0.18-0.14l0.27,0.09
			L3.47,15.7l-0.28,0.03c0.02-0.14-0.03-0.17-0.14-0.18l-1.22-0.14c-0.12-0.01-0.16,0.01-0.18,0.15l-0.27-0.09l0.12-1.06
			c0.06-0.51,0.3-0.79,0.69-0.75c0.25,0.03,0.42,0.18,0.48,0.46c0.1-0.25,0.35-0.29,0.5-0.3c0.17-0.02,0.23-0.04,0.25-0.2l0.01-0.05
			L3.7,13.66z M1.81,14.53l-0.04,0.31l0.6,0.07l0.03-0.3c0.02-0.23-0.08-0.36-0.26-0.38C1.97,14.2,1.83,14.3,1.81,14.53z"/>
		<path d="M4.13,12.31c-0.13,0.39-0.34,0.64-0.45,0.74l-0.4-0.25l0.06-0.18c0.25,0,0.41-0.2,0.47-0.41c0.05-0.16,0.03-0.35-0.14-0.4
			c-0.15-0.05-0.25,0.04-0.41,0.35c-0.16,0.32-0.43,0.6-0.83,0.47c-0.4-0.13-0.51-0.55-0.36-1c0.11-0.34,0.29-0.58,0.39-0.69
			l0.37,0.24l-0.06,0.18c-0.22,0.02-0.35,0.2-0.4,0.37C2.33,11.9,2.37,12.05,2.5,12.1c0.13,0.04,0.23-0.05,0.35-0.28
			c0.22-0.42,0.46-0.69,0.9-0.55C4.18,11.4,4.28,11.86,4.13,12.31z"/>
		<path d="M5.07,10.05l-0.36,0.7l-0.27-0.07c0.06-0.12,0.04-0.17-0.07-0.22L3.28,9.89C3.17,9.84,3.12,9.84,3.06,9.96L2.84,9.79
			l0.36-0.7l0.27,0.07C3.41,9.29,3.43,9.33,3.53,9.39l1.09,0.56C4.73,10,4.78,9.99,4.85,9.87L5.07,10.05z"/>
		<path d="M5.16,7.16C5.03,7.09,4.95,7.08,4.82,7.26L4.7,7.43L5.76,8.2C5.85,8.27,5.9,8.27,5.98,8.16l0.19,0.21L5.71,9L5.45,8.89
			c0.08-0.11,0.06-0.16-0.03-0.23L4.37,7.88L4.25,8.05c-0.13,0.18-0.1,0.25,0,0.36L4.08,8.56L3.69,8.2L4.8,6.69l0.46,0.26L5.16,7.16
			z"/>
		<path d="M8.33,6.15L7.77,6.68L7.54,6.52C7.61,6.45,7.62,6.4,7.51,6.34L7.36,6.26L6.81,6.78l0.06,0.16
			c0.05,0.12,0.11,0.1,0.18,0.03L7.21,7.2L6.72,7.66L6.49,7.5c0.09-0.08,0.1-0.13,0.05-0.25L6.01,6C5.98,5.92,5.93,5.9,5.83,5.99
			L5.69,5.75L6.5,4.99l0.23,0.16c-0.1,0.09-0.09,0.14-0.01,0.18l1.21,0.62C8.05,6,8.09,6,8.19,5.91L8.33,6.15z M6.54,5.81
			c-0.1-0.06-0.32-0.24-0.32-0.24s0.15,0.24,0.21,0.34l0.23,0.53l0.39-0.37L6.54,5.81z"/>
		<path d="M9.51,5.43C9.16,5.65,8.83,5.69,8.68,5.7L8.54,5.25l0.16-0.1c0.19,0.16,0.44,0.11,0.62,0c0.14-0.09,0.25-0.25,0.15-0.4
			c-0.08-0.13-0.22-0.13-0.54,0C8.61,4.89,8.23,4.94,8,4.58c-0.22-0.35-0.03-0.75,0.38-1c0.31-0.19,0.6-0.26,0.74-0.27l0.13,0.42
			L9.1,3.83C8.91,3.71,8.7,3.76,8.55,3.85C8.39,3.95,8.33,4.09,8.4,4.21c0.07,0.12,0.21,0.1,0.45,0.01c0.44-0.18,0.8-0.23,1.05,0.17
			C10.13,4.77,9.9,5.18,9.51,5.43z"/>
		<path d="M15.41,2.65c-0.14,0.02-0.17,0.07-0.15,0.18l0.02,0.16c0.01,0.11,0.04,0.13,0.11,0.12l-0.02,0.27
			c-0.3,0.06-0.35,0.19-0.81,0.25c-0.61,0.08-1.17-0.15-1.27-0.92C13.2,2,13.62,1.57,14.28,1.48c0.4-0.05,0.71,0.06,0.84,0.12
			l-0.06,0.48l-0.18,0.02c-0.09-0.21-0.29-0.27-0.5-0.25c-0.38,0.05-0.56,0.3-0.49,0.77c0.07,0.48,0.27,0.67,0.64,0.62
			c0.09-0.01,0.2-0.05,0.26-0.1l-0.03-0.26c-0.02-0.11-0.05-0.15-0.19-0.13l-0.04,0.01l0.02-0.28l0.8-0.11l0.09,0.27L15.41,2.65z"/>
		<path d="M17.2,3.57c-0.63-0.05-1.05-0.38-0.99-1.17c0.06-0.79,0.53-1.05,1.17-0.99c0.64,0.05,1.06,0.38,0.99,1.17
			C18.3,3.37,17.84,3.63,17.2,3.57z M17.34,1.79c-0.33-0.03-0.5,0.14-0.54,0.66s0.1,0.71,0.43,0.74c0.33,0.03,0.5-0.14,0.54-0.66
			C17.81,2.01,17.67,1.82,17.34,1.79z"/>
		<path d="M20.67,2.67c0.01-0.14-0.01-0.22-0.22-0.28l-0.2-0.05L19.91,3.6c-0.03,0.11-0.02,0.16,0.12,0.2l-0.13,0.25l-0.75-0.2
			l0.01-0.28c0.13,0.04,0.17,0,0.2-0.11l0.34-1.26l-0.2-0.05c-0.21-0.06-0.27,0-0.33,0.13l-0.21-0.1l0.19-0.49l1.81,0.5L20.9,2.69
			L20.67,2.67z"/>
		<path d="M22.87,5.36L22.18,5l0.07-0.27c0.12,0.06,0.17,0.04,0.22-0.07l0.21-0.42l-0.71-0.36L21.76,4.3
			c-0.05,0.1-0.05,0.16,0.07,0.22l-0.18,0.22l-0.69-0.35l0.07-0.27c0.12,0.06,0.17,0.04,0.22-0.07l0.56-1.09
			c0.05-0.11,0.05-0.16-0.08-0.22l0.18-0.22l0.69,0.35l-0.07,0.27c-0.12-0.06-0.16-0.04-0.22,0.07l-0.17,0.34l0.71,0.36l0.17-0.34
			c0.05-0.11,0.05-0.16-0.08-0.22l0.18-0.22l0.69,0.35l-0.07,0.27c-0.12-0.06-0.16-0.04-0.22,0.07l-0.56,1.09
			c-0.05,0.1-0.05,0.16,0.07,0.22L22.87,5.36z"/>
		<path d="M24.2,6.41c-0.49-0.4-0.65-0.91-0.15-1.52c0.5-0.61,1.03-0.55,1.52-0.15c0.5,0.41,0.65,0.92,0.15,1.53
			C25.22,6.87,24.69,6.82,24.2,6.41z M25.33,5.03c-0.25-0.21-0.49-0.17-0.82,0.23c-0.33,0.4-0.33,0.64-0.07,0.85
			c0.26,0.21,0.49,0.17,0.82-0.23C25.59,5.48,25.59,5.24,25.33,5.03z"/>
		<path d="M26.13,8.34l-0.65-0.8l0.18-0.22c0.09,0.11,0.14,0.1,0.23,0.03l0.96-0.77c0.09-0.07,0.11-0.12,0.02-0.23l0.25-0.13
			l0.6,0.75c0.33,0.4,0.36,0.75,0.08,0.98c-0.13,0.11-0.35,0.11-0.51,0.03c0.1,0.26,0.02,0.49-0.16,0.64
			C26.83,8.86,26.46,8.74,26.13,8.34z M26.63,7.48l-0.47,0.38l0.19,0.23c0.14,0.18,0.31,0.19,0.45,0.08
			c0.14-0.11,0.16-0.29,0.01-0.47L26.63,7.48z M26.9,7.27l0.16,0.2c0.13,0.16,0.27,0.17,0.39,0.08c0.12-0.09,0.14-0.22,0-0.39
			l-0.16-0.2L26.9,7.27z"/>
		<path d="M29.38,10.51l-0.87,0.44c-0.4,0.2-0.81,0-1.07-0.51c-0.26-0.52-0.18-0.97,0.21-1.17l0.87-0.44
			c0.11-0.05,0.13-0.1,0.07-0.22l0.27-0.07l0.36,0.71l-0.22,0.18c-0.06-0.12-0.11-0.13-0.22-0.08L27.92,9.8
			c-0.17,0.09-0.23,0.26-0.11,0.49c0.12,0.24,0.3,0.29,0.47,0.21l0.87-0.44c0.11-0.05,0.13-0.1,0.07-0.22l0.27-0.07l0.33,0.65
			l-0.22,0.18C29.54,10.47,29.49,10.46,29.38,10.51z"/>
		<path d="M28.71,13.99l-0.16-0.6c0.21-0.37,0.79-0.3,0.68-0.71l-0.06-0.24l-0.39,0.1c-0.11,0.03-0.15,0.07-0.11,0.2l-0.28,0.01
			l-0.2-0.75l0.25-0.13c0.04,0.14,0.09,0.15,0.2,0.12l1.19-0.31c0.11-0.03,0.15-0.07,0.11-0.2l0.28-0.01l0.27,1.03
			c0.13,0.5,0,0.85-0.37,0.95c-0.25,0.07-0.45-0.02-0.62-0.25c0,0.27-0.22,0.4-0.35,0.46c-0.16,0.08-0.2,0.12-0.16,0.28l0.01,0.05
			L28.71,13.99z M30.15,12.49l-0.08-0.3l-0.58,0.15l0.08,0.29c0.06,0.22,0.2,0.31,0.38,0.26C30.12,12.85,30.21,12.71,30.15,12.49z"
			/>
		<path d="M29.71,16.57c-0.01-0.14-0.05-0.17-0.17-0.17l-0.16,0.01c-0.11,0.01-0.14,0.03-0.13,0.1l-0.26-0.04
			c-0.04-0.3-0.16-0.36-0.18-0.82c-0.03-0.62,0.24-1.15,1.03-1.19c0.72-0.04,1.11,0.41,1.14,1.08c0.02,0.4-0.12,0.7-0.19,0.83
			l-0.48-0.1l-0.01-0.18c0.22-0.07,0.3-0.26,0.29-0.48c-0.02-0.38-0.25-0.58-0.73-0.56c-0.48,0.02-0.69,0.21-0.67,0.59
			c0,0.09,0.04,0.21,0.08,0.27l0.26-0.01c0.11-0.01,0.16-0.04,0.15-0.18l0-0.04l0.28,0.04l0.04,0.81l-0.27,0.07L29.71,16.57z"/>
		<path d="M28.57,18.94l0.25-1.61l0.28-0.02c-0.02,0.13,0.02,0.17,0.13,0.19l1.21,0.19c0.12,0.02,0.16-0.01,0.18-0.14l0.26,0.1
			l-0.23,1.54l-0.5-0.08l-0.01-0.22c0.17,0,0.21-0.04,0.24-0.27l0.06-0.36l-0.5-0.08l-0.05,0.32c-0.02,0.14-0.01,0.19,0.1,0.21
			l-0.09,0.21l-0.5-0.08l-0.02-0.23c0.11,0.02,0.14-0.03,0.16-0.17l0.05-0.32l-0.55-0.08l-0.08,0.5c-0.03,0.22,0.02,0.27,0.17,0.31
			l-0.08,0.22L28.57,18.94z"/>
		<path d="M29.25,22.13l-1.56-0.59l0.15-0.39l1.42-0.41c0.1-0.03,0.27-0.05,0.27-0.05s-0.16-0.04-0.23-0.07l-0.69-0.26
			c-0.11-0.04-0.16-0.03-0.21,0.1l-0.24-0.15l0.24-0.63l0.28,0.04c-0.05,0.13-0.02,0.17,0.09,0.21l1.15,0.43
			c0.11,0.04,0.16,0.03,0.21-0.1l0.24,0.16l-0.21,0.56l-1.29,0.37c-0.1,0.03-0.28,0.05-0.28,0.05s0.16,0.04,0.24,0.07l0.59,0.22
			c0.11,0.04,0.16,0.03,0.21-0.1l0.24,0.15l-0.24,0.63l-0.28-0.04C29.39,22.21,29.37,22.17,29.25,22.13z"/>
		<path d="M26.87,22.9c0.22-0.35,0.49-0.53,0.62-0.61l0.32,0.34l-0.1,0.16c-0.24-0.06-0.44,0.09-0.56,0.28
			c-0.09,0.14-0.12,0.33,0.03,0.42c0.13,0.08,0.25,0.02,0.48-0.24c0.24-0.27,0.56-0.47,0.92-0.25c0.35,0.22,0.35,0.66,0.1,1.06
			c-0.19,0.31-0.43,0.49-0.55,0.57l-0.3-0.32l0.1-0.16c0.22,0.03,0.39-0.11,0.48-0.25c0.1-0.16,0.1-0.32-0.02-0.39
			c-0.12-0.07-0.23,0-0.41,0.19c-0.32,0.35-0.62,0.56-1.01,0.31C26.6,23.77,26.62,23.3,26.87,22.9z"/>
		<path d="M25.38,24.89l0.52-0.59l0.24,0.14c-0.09,0.1-0.08,0.15,0.01,0.23l0.92,0.82c0.09,0.08,0.14,0.08,0.23-0.02l0.17,0.23
			l-0.52,0.59l-0.25-0.14c0.09-0.1,0.08-0.15-0.01-0.23l-0.92-0.82c-0.09-0.08-0.14-0.08-0.23,0.02L25.38,24.89z"/>
		<path d="M24.08,26.03c0.32-0.26,0.64-0.34,0.79-0.37l0.19,0.43l-0.15,0.12c-0.21-0.14-0.45-0.06-0.62,0.08
			c-0.13,0.1-0.22,0.27-0.11,0.41c0.1,0.12,0.23,0.1,0.54-0.07c0.31-0.17,0.69-0.27,0.95,0.07c0.26,0.32,0.12,0.74-0.25,1.04
			c-0.28,0.23-0.57,0.33-0.71,0.36l-0.18-0.41l0.15-0.12c0.19,0.1,0.4,0.02,0.54-0.08c0.15-0.12,0.2-0.27,0.11-0.38
			c-0.08-0.11-0.22-0.08-0.44,0.05c-0.42,0.23-0.77,0.33-1.06-0.04C23.54,26.76,23.72,26.32,24.08,26.03z"/>
		<path d="M12.76,30.65l-1.05-0.3l0.02-0.29l0.13,0.04c0.14,0.04,0.18,0.01,0.21-0.1l0.3-1.07c-0.07,0.04-0.2,0.06-0.41,0.02
			l0.09-0.31c0.23,0.01,0.37-0.02,0.6-0.23l0.43,0.12l-0.46,1.62c-0.03,0.11,0,0.16,0.13,0.2l0.13,0.04L12.76,30.65z"/>
		<path d="M14.76,31.01c-0.58-0.05-0.92-0.32-0.89-0.67c0.03-0.3,0.29-0.45,0.56-0.54c-0.23-0.13-0.42-0.29-0.39-0.53
			c0.03-0.31,0.39-0.49,0.93-0.44c0.51,0.05,0.85,0.29,0.82,0.6c-0.02,0.24-0.24,0.37-0.48,0.45c0.26,0.14,0.48,0.33,0.45,0.64
			C15.72,30.87,15.32,31.07,14.76,31.01z M14.85,30.02c-0.23,0.08-0.41,0.2-0.42,0.38c-0.01,0.15,0.13,0.28,0.36,0.3
			c0.22,0.02,0.39-0.07,0.41-0.23C15.21,30.3,15.06,30.15,14.85,30.02z M14.94,29.15c-0.19-0.02-0.32,0.05-0.34,0.18
			c-0.01,0.14,0.1,0.25,0.29,0.36c0.19-0.07,0.33-0.16,0.34-0.3C15.24,29.26,15.12,29.17,14.94,29.15z"/>
		<path d="M17.4,31.02c-0.14,0.01-0.41-0.01-0.5-0.07l-0.03-0.3c0.1,0.03,0.25,0.04,0.38,0.03c0.37-0.04,0.59-0.22,0.63-0.6
			c-0.07,0.11-0.26,0.22-0.47,0.24c-0.51,0.05-0.83-0.22-0.87-0.65c-0.04-0.44,0.27-0.78,0.83-0.84c0.64-0.06,0.98,0.32,1.03,0.88
			C18.47,30.38,18.19,30.95,17.4,31.02z M17.41,29.17c-0.25,0.03-0.38,0.21-0.36,0.46c0.02,0.24,0.17,0.39,0.41,0.37
			c0.22-0.02,0.41-0.18,0.38-0.46C17.83,29.36,17.71,29.14,17.41,29.17z"/>
		<path d="M20.7,30.36l-1.05,0.28l-0.13-0.26l0.14-0.04c0.14-0.04,0.16-0.08,0.13-0.2l-0.28-1.07c-0.04,0.07-0.14,0.15-0.35,0.23
			l-0.08-0.31c0.2-0.11,0.31-0.2,0.4-0.5l0.43-0.11L20.34,30c0.03,0.11,0.08,0.14,0.21,0.11l0.14-0.04L20.7,30.36z"/>
	</g>
	<g>
		<path d="M40.04,17.84c0-0.52,0.01-0.83,0.01-2.19c0-1.08-0.01-1.94-0.03-3.17l-0.05-0.05l-1.31-0.07v-0.47h3.91v0.47l-1.11,0.07
			l-0.05,0.05c-0.01,1.03-0.03,3.24-0.03,5.31c0,1.72,0.4,2.89,2.22,2.89c1.9,0,2.45-1.11,2.45-3.15c0-1.78-0.03-3.71-0.05-5.05
			l-0.05-0.05l-1.26-0.07v-0.47h3.62v0.47l-1.34,0.07l-0.05,0.05c-0.04,1.46-0.04,3.47-0.03,5.17c0.01,2.35-1.09,3.61-3.39,3.61
			C41.23,21.26,40.04,20.09,40.04,17.84z"/>
		<path d="M49.27,20.65l1.34-0.07l0.05-0.05c0.04-1.46,0.04-2.54,0.04-3.91c0-1.37,0-2.12-0.04-4.14l-0.05-0.05l-1.34-0.07v-0.47
			h2.61c1.67,2.34,3.57,5.08,4.94,7.03h0.03c-0.03-2.63-0.05-5.1-0.08-6.44l-0.05-0.05l-1.26-0.07v-0.47h3.62v0.47l-1.34,0.07
			l-0.05,0.05c-0.04,1.46-0.04,2.54-0.04,5.98v2.74h-0.67c-1.7-2.41-3.72-5.24-5.44-7.7h-0.03c0.01,3.2,0.05,5.68,0.08,7.04
			l0.05,0.05l1.26,0.07v0.46h-3.62V20.65z"/>
		<path d="M60.03,20.65l1.34-0.07l0.05-0.05c0.03-0.42,0.04-2.27,0.04-4.12c0-1.85-0.01-3.47-0.04-3.94l-0.05-0.05l-1.34-0.07v-0.47
			h4.16v0.47l-1.33,0.07l-0.05,0.05c-0.03,0.37-0.04,2.27-0.04,4.12c0,1.85,0.03,3.47,0.04,3.94l0.05,0.05l1.33,0.07v0.46h-4.16
			V20.65z"/>
		<path d="M65.76,12.39l-0.82-0.04v-0.47h3.58v0.47l-1.22,0.05l-0.05,0.05c0.77,1.98,1.67,4.38,2.57,6.69h0.03
			c0.67-1.86,1.83-5.17,2.28-6.7l-0.04-0.04l-1.11-0.05v-0.47h3.02v0.47l-0.79,0.04c-0.71,1.81-2.35,6.06-3.43,8.86h-0.37
			C68.01,17.84,66.79,14.85,65.76,12.39z"/>
		<path d="M74.76,20.65l1.34-0.07l0.06-0.05c0.01-0.63,0.04-2.27,0.04-4.12c0-1.85-0.03-3.39-0.04-3.94l-0.06-0.05l-1.34-0.07v-0.47
			h6l0.53-0.23h0.21l0.1,3h-0.27c-0.49-1.38-0.93-2.07-1.16-2.08l-2.58-0.14l-0.04,0.07c-0.01,0.63-0.04,2.08-0.04,3.61
			c0.62,0,1.96-0.04,2.31-0.07l0.05-0.05l0.49-0.96h0.26c-0.01,0.38-0.03,0.97-0.03,1.34c0,0.36,0.01,1.12,0.03,1.53h-0.26
			l-0.49-1.14l-0.05-0.05c-0.42-0.01-1.64-0.04-2.31-0.04c0,1.74,0.03,3.13,0.04,3.83l0.04,0.07l2.79-0.15
			c0.23-0.01,0.85-0.57,1.34-2.19h0.31c-0.18,2.67-0.22,2.89-0.45,2.89h-6.81V20.65z"/>
		<path d="M83.4,20.65l1.37-0.07l0.05-0.05c0.01-0.4,0.04-2.27,0.04-4.12c0-1.85-0.03-3.32-0.04-3.94l-0.05-0.05l-1.37-0.07v-0.47
			c1.23,0,2.54-0.03,3.24-0.03c1.08,0,1.71,0.07,2.22,0.22c1.31,0.4,1.89,1.24,1.89,2.17c0,1.35-0.92,2-2.04,2.35v0.03
			c0.36,0.41,0.97,1.53,1.76,2.93c0.34,0.6,0.67,1.05,1.12,1.08l0.3,0.01v0.46h-2.05l-0.05-0.05c-0.51-1.03-0.86-1.86-1.72-3.39
			c-0.18-0.31-0.34-0.57-0.55-0.81c-0.49,0.07-0.96,0.1-1.35,0.1c-0.01,1.63,0.03,3.16,0.04,3.57l0.05,0.05l1.26,0.07v0.46H83.4
			V20.65z M89.26,14.27c0-0.75-0.33-1.31-0.94-1.6c-0.34-0.16-0.77-0.26-1.63-0.26h-0.45l-0.04,0.04c-0.01,0.59-0.03,2.38-0.04,3.98
			C88.54,16.36,89.26,15.59,89.26,14.27z"/>
		<path d="M93.4,18.23h0.31c0.48,1.74,1.26,2.46,2.22,2.46c1.12,0,1.83-0.75,1.83-1.74c0-2.38-4.2-1.78-4.2-4.79
			c0-1.27,1-2.43,2.74-2.43c0.89,0,1.6,0.27,1.75,0.31l0.41-0.4h0.26l0.08,3h-0.29c-0.57-1.67-1.33-2.35-2.26-2.35
			c-0.81,0-1.5,0.53-1.5,1.44c0,2.28,4.27,1.93,4.27,4.81c0,1.38-1.04,2.71-3.17,2.71c-0.59,0-1.29-0.14-1.89-0.53l-0.27,0.53H93.4
			V18.23z"/>
		<path d="M100.59,20.65l1.34-0.07l0.05-0.05c0.03-0.42,0.04-2.27,0.04-4.12c0-1.85-0.01-3.47-0.04-3.94l-0.05-0.05l-1.34-0.07
			v-0.47h4.16v0.47l-1.33,0.07l-0.05,0.05c-0.03,0.37-0.04,2.27-0.04,4.12c0,1.85,0.03,3.47,0.04,3.94l0.05,0.05l1.33,0.07v0.46
			h-4.16V20.65z"/>
		<path d="M107.6,20.65l1.46-0.07l0.05-0.05c0.01-0.51,0.04-2.27,0.04-4.12c0-1.85,0-3.36-0.04-3.84l-0.04-0.07h-1.63
			c-0.29,0-0.63,0.49-1.19,2.15h-0.27l0.11-3h0.25l0.4,0.23h6.14l0.4-0.23h0.25l0.11,3h-0.27c-0.57-1.67-0.9-2.15-1.19-2.15h-1.63
			l-0.04,0.07c-0.01,0.33-0.04,2.18-0.04,4.02c0,1.85,0.03,3.45,0.04,3.94l0.06,0.05l1.5,0.07v0.46h-4.46V20.65z"/>
		<path d="M117.12,20.65l1.35-0.07l0.05-0.05c0.03-1.03,0.04-1.66,0.04-3.53c-1.13-1.72-2.38-3.71-3-4.61l-0.92-0.04v-0.47h3.49
			v0.47l-0.99,0.05l-0.05,0.05c0.67,1.12,1.61,2.69,2.34,3.82h0.03c0.75-1.33,1.63-2.94,2.07-3.83l-0.04-0.04l-0.96-0.05v-0.47h2.96
			v0.47l-0.83,0.04c-0.79,1.16-1.83,3-2.79,4.57c0,1.89,0.03,2.34,0.04,3.57l0.05,0.05l1.4,0.07v0.46h-4.24V20.65z"/>
		<path d="M127.39,16.63c0-3.1,1.9-4.9,4.32-4.9c2.72,0,4.29,1.92,4.29,4.62c0,3.1-1.9,4.9-4.32,4.9
			C128.96,21.26,127.39,19.34,127.39,16.63z M134.53,16.5c0-2.76-1.08-4.14-2.82-4.14c-1.74,0-2.85,1.38-2.85,4.14
			c0,2.76,1.08,4.14,2.82,4.14C133.42,20.64,134.53,19.26,134.53,16.5z"/>
		<path d="M137.38,20.65l1.34-0.08l0.05-0.05c0.01-0.48,0.04-2.26,0.04-4.1c0-1.85-0.03-3.46-0.04-3.94l-0.05-0.05l-1.34-0.07v-0.47
			h6.03l0.53-0.23h0.21l0.1,3h-0.28c-0.49-1.38-0.93-2.08-1.16-2.09l-2.61-0.12l-0.04,0.07c-0.01,0.4-0.04,2.08-0.04,3.61
			c0.62,0,1.96-0.04,2.28-0.07l0.05-0.05l0.49-0.96h0.26c-0.01,0.38-0.03,0.97-0.03,1.34c0,0.36,0.01,1.22,0.03,1.63h-0.26
			l-0.52-1.23l-0.05-0.05c-0.4-0.01-1.59-0.04-2.26-0.04c0,1.74,0,3.28,0.04,3.84l0.05,0.05l1.48,0.08v0.46h-4.31V20.65z"/>
		<path d="M148.62,16.5c0-3,2.03-4.76,4.69-4.76c1.01,0,1.6,0.16,2.12,0.31l0.45-0.4h0.21l0.1,3h-0.29
			c-0.68-1.83-1.66-2.35-2.67-2.35c-1.59,0-3.13,1.19-3.13,4.06c0,2.24,1.12,4.28,3.45,4.28c0.67,0,1.4-0.19,1.4-0.41
			c0-0.46,0.01-1.71-0.03-2.76l-0.06-0.05l-1.34-0.07v-0.46h3.83v0.46l-0.98,0.07l-0.05,0.05c-0.03,0.88-0.04,1.86-0.03,2.91
			c-0.16,0.34-1.48,0.88-2.86,0.88C150.63,21.26,148.62,19.52,148.62,16.5z"/>
		<path d="M158.85,16.63c0-3.1,1.9-4.9,4.32-4.9c2.72,0,4.29,1.92,4.29,4.62c0,3.1-1.9,4.9-4.32,4.9
			C160.43,21.26,158.85,19.34,158.85,16.63z M165.99,16.5c0-2.76-1.08-4.14-2.82-4.14c-1.74,0-2.84,1.38-2.84,4.14
			c0,2.76,1.08,4.14,2.82,4.14C164.89,20.64,165.99,19.26,165.99,16.5z"/>
		<path d="M170.73,20.65l1.46-0.07l0.05-0.05c0.01-0.51,0.04-2.27,0.04-4.12c0-1.85,0-3.36-0.04-3.84l-0.04-0.07h-1.63
			c-0.29,0-0.63,0.49-1.19,2.15h-0.27l0.11-3h0.25l0.4,0.23h6.14l0.4-0.23h0.25l0.11,3h-0.27c-0.57-1.67-0.9-2.15-1.19-2.15h-1.63
			l-0.04,0.07c-0.01,0.33-0.04,2.18-0.04,4.02c0,1.85,0.03,3.45,0.04,3.94l0.05,0.05l1.51,0.07v0.46h-4.46V20.65z"/>
		<path d="M177.99,20.65l1.34-0.07l0.05-0.05c0.01-0.52,0.04-2.27,0.04-4.12c0-1.85-0.03-3.51-0.04-3.94l-0.05-0.05l-1.34-0.07
			v-0.47h3.97v0.47l-1.13,0.07l-0.05,0.05c-0.03,0.42-0.04,2.04-0.04,3.57h4.53c0.01-1.7-0.03-3.25-0.04-3.57l-0.05-0.05l-1.14-0.07
			v-0.47h3.97v0.47l-1.34,0.07l-0.05,0.05c-0.01,0.41-0.04,2.27-0.04,4.12c0,1.85,0.03,3.34,0.04,3.94l0.05,0.05l1.34,0.07v0.46
			h-3.97v-0.46l1.14-0.07l0.05-0.05c0.01-0.47,0.04-2.16,0.04-3.78h-4.53c0,1.74,0.01,3,0.04,3.78l0.05,0.05l1.13,0.07v0.46h-3.97
			V20.65z"/>
		<path d="M188.95,20.65l1.34-0.07l0.05-0.05c0.02-0.63,0.04-2.27,0.04-4.12c0-1.85-0.03-3.39-0.04-3.94l-0.05-0.05l-1.34-0.07
			v-0.47h6.01l0.53-0.23h0.21l0.1,3h-0.27c-0.49-1.38-0.93-2.07-1.16-2.08l-2.58-0.14l-0.04,0.07c-0.01,0.63-0.04,2.08-0.04,3.61
			c0.62,0,1.96-0.04,2.31-0.07l0.06-0.05l0.49-0.96h0.26c-0.01,0.38-0.03,0.97-0.03,1.34c0,0.36,0.01,1.12,0.03,1.53h-0.26
			l-0.49-1.14L194,16.71c-0.42-0.01-1.64-0.04-2.31-0.04c0,1.74,0.03,3.13,0.04,3.83l0.04,0.07l2.79-0.15
			c0.23-0.01,0.85-0.57,1.34-2.19h0.31c-0.18,2.67-0.22,2.89-0.45,2.89h-6.81V20.65z"/>
		<path d="M197.58,20.65l1.34-0.07l0.05-0.05c0.04-1.46,0.04-2.54,0.04-3.91c0-1.37,0-2.12-0.04-4.14l-0.05-0.05l-1.34-0.07v-0.47
			h2.61c1.67,2.34,3.57,5.08,4.94,7.03h0.03c-0.03-2.63-0.06-5.1-0.08-6.44l-0.05-0.05l-1.26-0.07v-0.47h3.62v0.47l-1.34,0.07
			l-0.05,0.05c-0.04,1.46-0.04,2.54-0.04,5.98v2.74h-0.67c-1.7-2.41-3.72-5.24-5.45-7.7h-0.03c0.01,3.2,0.05,5.68,0.08,7.04
			l0.05,0.05l1.26,0.07v0.46h-3.62V20.65z"/>
		<path d="M208.35,20.65l1.34-0.07l0.05-0.05c0.01-0.48,0.04-2.27,0.04-4.12c0-1.85-0.03-3.34-0.04-3.94l-0.05-0.05l-1.34-0.07
			v-0.47c1.01,0,2.17-0.03,2.98-0.03c1,0,1.76,0.08,2.38,0.27c1.08,0.34,1.74,1.04,1.74,2.04c0,1.18-0.78,1.87-1.67,2.09v0.03
			c1.45,0.07,2.31,0.92,2.31,2.02c0,1.86-1.67,2.83-4.32,2.83c-0.89,0-2.33-0.03-3.42-0.03V20.65z M211.95,16.09
			c1.61,0,2.02-0.77,2.02-1.82c0-0.72-0.26-1.27-0.82-1.56c-0.36-0.19-0.86-0.3-1.61-0.3c-0.07,0-0.22,0-0.36,0.01l-0.05,0.07
			c-0.02,0.71-0.05,2.05-0.04,3.6H211.95z M214.61,18.49c0-1.3-0.89-1.81-2.09-1.81h-1.44c-0.01,1.74,0.03,3.12,0.04,3.84l0.07,0.05
			c0.26,0.01,0.51,0.01,0.67,0.01C213.71,20.6,214.61,19.83,214.61,18.49z"/>
		<path d="M218.84,17.84c0-0.52,0.01-0.83,0.01-2.19c0-1.08-0.01-1.94-0.03-3.17l-0.05-0.05l-1.31-0.07v-0.47h3.91v0.47l-1.11,0.07
			l-0.05,0.05c-0.01,1.03-0.03,3.24-0.03,5.31c0,1.72,0.4,2.89,2.22,2.89c1.9,0,2.45-1.11,2.45-3.15c0-1.78-0.03-3.71-0.05-5.05
			l-0.05-0.05l-1.26-0.07v-0.47h3.62v0.47l-1.34,0.07l-0.05,0.05c-0.04,1.46-0.04,3.47-0.03,5.17c0.01,2.35-1.09,3.61-3.39,3.61
			C220.03,21.26,218.84,20.09,218.84,17.84z"/>
		<path d="M228.06,20.65l1.37-0.07l0.05-0.05c0.01-0.4,0.04-2.27,0.04-4.12c0-1.85-0.03-3.32-0.04-3.94l-0.05-0.05l-1.37-0.07v-0.47
			c1.23,0,2.54-0.03,3.24-0.03c1.08,0,1.71,0.07,2.22,0.22c1.31,0.4,1.89,1.24,1.89,2.17c0,1.35-0.92,2-2.04,2.35v0.03
			c0.36,0.41,0.97,1.53,1.77,2.93c0.34,0.6,0.67,1.05,1.12,1.08l0.3,0.01v0.46h-2.05l-0.05-0.05c-0.51-1.03-0.86-1.86-1.72-3.39
			c-0.18-0.31-0.34-0.57-0.55-0.81c-0.49,0.07-0.96,0.1-1.36,0.1c-0.01,1.63,0.03,3.16,0.04,3.57l0.05,0.05l1.26,0.07v0.46h-4.12
			V20.65z M233.93,14.27c0-0.75-0.33-1.31-0.94-1.6c-0.34-0.16-0.77-0.26-1.63-0.26h-0.45l-0.04,0.04
			c-0.02,0.59-0.03,2.38-0.04,3.98C233.2,16.36,233.93,15.59,233.93,14.27z"/>
		<path d="M237.72,16.5c0-3,2.02-4.76,4.69-4.76c1.01,0,1.6,0.16,2.12,0.31l0.45-0.4h0.21l0.1,3h-0.29
			c-0.68-1.83-1.65-2.35-2.67-2.35c-1.59,0-3.13,1.19-3.13,4.06c0,2.24,1.12,4.28,3.45,4.28c0.67,0,1.39-0.19,1.39-0.41
			c0-0.46,0.01-1.71-0.03-2.76l-0.05-0.05l-1.34-0.07v-0.46h3.83v0.46l-0.98,0.07l-0.06,0.05c-0.03,0.88-0.04,1.86-0.03,2.91
			c-0.16,0.34-1.48,0.88-2.86,0.88C239.73,21.26,237.72,19.52,237.72,16.5z"/>
	</g>
</g>
</svg>
