<svg id="Layer_3" data-name="Layer 3" xmlns="http://www.w3.org/2000/svg" viewBox="0 0 1390.2 228.5"><defs><style>.cls-1{fill:#e73252;opacity:0.81;}.cls-2{fill:#8ad766;}.cls-3{fill:#b3b3b3;}</style></defs><title>siat-logo</title><path d="M130.5,581.4,156,545.1a96.1,96.1,0,0,0,69.4,29.7c25.8,0,37.9-11.4,37.9-24.2,0-37.9-125.6-11.4-125.6-93.5,0-36.3,31.4-66.4,82.8-66.4,34.6,0,63.4,10.5,85,30.4l-25.9,34.7c-17.6-16.3-41.2-23.9-63.4-23.9-19.6,0-30.7,8.5-30.7,21.6,0,34.3,125.2,11.1,125.2,92.6,0,39.8-28.8,69.9-87.3,69.9C181.2,616,151.1,602,130.5,581.4Z" transform="translate(-130.5 -388.6)"/><path d="M341.8,612.1V394h86c68.3,0,115.7,43.5,115.7,108.9S496.1,612.1,428.1,612.1ZM496.1,502.9c0-38.3-23.5-68-68-68H388.2V571.2h39.6C470.9,571.2,496.1,540.2,496.1,502.9Z" transform="translate(-130.5 -388.6)"/><path d="M566.1,503.2c0-69,52.3-112.8,116.4-112.8,45.1,0,73.6,22.9,89.9,48.7l-38.2,21c-10.2-15.4-28.8-28.5-51.7-28.5-39.9,0-68.7,30.4-68.7,71.6s28.8,71.6,68.7,71.6c19.3,0,37.3-8.5,46.1-16.6V532H671.1V491.4H775v83.8C752.8,600,721.7,616,682.5,616,618.4,616,566.1,571.9,566.1,503.2Z" transform="translate(-130.5 -388.6)"/><path d="M926.8,452.3V389.7h13.4v62.6Z" transform="translate(-130.5 -388.6)"/><path d="M1007.1,452.3V407.1l-17.7,45.2h-5.8l-17.7-45.2v45.2H952.6V389.7h18.7l15.2,39.2,15.2-39.2h18.8v62.6Z" transform="translate(-130.5 -388.6)"/><path d="M1033,452.3V389.7h29.3c13.6,0,21,9.2,21,20.2s-7.5,20.1-21,20.1h-16v22.3Zm36.7-42.4c0-5.3-4-8.5-9.3-8.5h-14.1v16.8h14.1C1065.7,418.2,1069.7,415,1069.7,409.9Z" transform="translate(-130.5 -388.6)"/><path d="M1128.1,452.3l-4-10.6h-26.9l-3.9,10.6h-15.1l24.1-62.6h16.8l24.1,62.6ZM1110.7,403l-9.8,27h19.6Z" transform="translate(-130.5 -388.6)"/><path d="M1142.8,421c0-19.3,14.6-32.4,33.5-32.4,13.7,0,21.7,7.4,26.1,15.3l-11.4,5.7a17,17,0,0,0-14.7-9.1c-11.5,0-19.7,8.7-19.7,20.5s8.2,20.6,19.7,20.6a17,17,0,0,0,14.7-9.1l11.4,5.6c-4.4,7.8-12.4,15.4-26.1,15.4C1157.4,453.5,1142.8,440.3,1142.8,421Z" transform="translate(-130.5 -388.6)"/><path d="M1224.9,452.3V401.4h-18.3V389.7h50v11.7h-18.3v50.9Z" transform="translate(-130.5 -388.6)"/><path d="M970.2,534.3l-4-10.6H939.3l-3.9,10.6H920.2l24.2-62.6h16.7l24.2,62.6ZM952.8,485,943,512h19.5Z" transform="translate(-130.5 -388.6)"/><path d="M986.1,525.5l7.4-10.4a27.5,27.5,0,0,0,19.9,8.5c7.4,0,10.9-3.3,10.9-6.9,0-10.9-36.1-3.3-36.1-26.9,0-10.4,9-19.1,23.8-19.1,10,0,18.2,3,24.4,8.8l-7.4,9.9a26.8,26.8,0,0,0-18.2-6.8c-5.7,0-8.9,2.4-8.9,6.2,0,9.8,36,3.2,36,26.6,0,11.4-8.2,20.1-25.1,20.1C1000.7,535.5,992.1,531.4,986.1,525.5Z" transform="translate(-130.5 -388.6)"/><path d="M1042.5,525.5l7.4-10.4a27.5,27.5,0,0,0,19.9,8.5c7.4,0,10.9-3.3,10.9-6.9,0-10.9-36.1-3.3-36.1-26.9,0-10.4,9-19.1,23.8-19.1,10,0,18.2,3,24.4,8.8l-7.4,9.9a26.8,26.8,0,0,0-18.2-6.8c-5.7,0-8.9,2.4-8.9,6.2,0,9.8,36,3.2,36,26.6,0,11.4-8.2,20.1-25.1,20.1C1057.1,535.5,1048.5,531.4,1042.5,525.5Z" transform="translate(-130.5 -388.6)"/><path d="M1103.3,534.3V471.7h44.3v11.7h-31v13.2H1147v11.7h-30.4v14.3h31v11.7Z" transform="translate(-130.5 -388.6)"/><path d="M1153.7,525.5l7.4-10.4a27.5,27.5,0,0,0,19.9,8.5c7.4,0,10.9-3.3,10.9-6.9,0-10.9-36.1-3.3-36.1-26.9,0-10.4,9-19.1,23.8-19.1,10,0,18.2,3,24.4,8.8l-7.4,9.9a26.8,26.8,0,0,0-18.2-6.8c-5.7,0-8.9,2.4-8.9,6.2,0,9.8,36,3.2,36,26.6,0,11.4-8.2,20.1-25.1,20.1C1168.3,535.5,1159.7,531.4,1153.7,525.5Z" transform="translate(-130.5 -388.6)"/><path d="M1210.1,525.5l7.4-10.4a27.5,27.5,0,0,0,19.9,8.5c7.4,0,10.9-3.3,10.9-6.9,0-10.9-36.1-3.3-36.1-26.9,0-10.4,9-19.1,23.8-19.1,10,0,18.2,3,24.4,8.8l-7.4,9.9a26.8,26.8,0,0,0-18.2-6.8c-5.7,0-8.9,2.4-8.9,6.2,0,9.8,36,3.2,36,26.6,0,11.4-8.2,20.1-25.1,20.1C1224.7,535.5,1216.1,531.4,1210.1,525.5Z" transform="translate(-130.5 -388.6)"/><path d="M1325.4,534.3V489.1l-17.7,45.2h-5.8l-17.7-45.2v45.2h-13.3V471.7h18.7l15.2,39.2,15.2-39.2h18.8v62.6Z" transform="translate(-130.5 -388.6)"/><path d="M1351.2,534.3V471.7h44.4v11.7h-31v13.2h30.3v11.7h-30.3v14.3h31v11.7Z" transform="translate(-130.5 -388.6)"/><path d="M1449.3,534.3l-29.9-40.8v40.8H1406V471.7h13.8l29,39.3V471.7h13.3v62.6Z" transform="translate(-130.5 -388.6)"/><path d="M1489,534.3V483.4h-18.3V471.7h50v11.7h-18.2v50.9Z" transform="translate(-130.5 -388.6)"/><path d="M941.3,616V565.1H923V553.3h50v11.8H954.7V616Z" transform="translate(-130.5 -388.6)"/><path d="M976.3,584.7c0-18.9,13.8-32.4,32.8-32.4s32.7,13.5,32.7,32.4-13.8,32.4-32.7,32.4S976.3,603.6,976.3,584.7Zm51.8,0c0-11.7-7.5-20.6-19-20.6S990,573,990,584.7s7.4,20.6,19.1,20.6S1028.1,596.4,1028.1,584.7Z" transform="translate(-130.5 -388.6)"/><path d="M1048.2,584.7c0-18.9,13.8-32.4,32.8-32.4s32.7,13.5,32.7,32.4-13.8,32.4-32.7,32.4S1048.2,603.6,1048.2,584.7Zm51.8,0c0-11.7-7.5-20.6-19-20.6s-19.1,8.9-19.1,20.6,7.4,20.6,19.1,20.6S1100,596.4,1100,584.7Z" transform="translate(-130.5 -388.6)"/><path d="M1122.5,616V553.3H1136v51h26.5V616Z" transform="translate(-130.5 -388.6)"/><path class="cls-1" d="M886.1,615.5H821.8V545.6h64.3Zm-57.3-7h50.3V552.6H828.8Z" transform="translate(-130.5 -388.6)"/><path class="cls-2" d="M885.9,459.4H821.6V389.5h64.3Zm-57.3-7h50.3V396.5H828.6Z" transform="translate(-130.5 -388.6)"/><path class="cls-3" d="M886,537.4H821.7V467.6H886Zm-57.3-7H879V474.6H828.7Z" transform="translate(-130.5 -388.6)"/></svg>